PathFileType	4	(X/Y/Z)	C:/Users/beibeiliu/ov580/test_trc/User2\sequence.8_training_dense_left.trc
DataRate	CameraRate	NumFrames	NumMarkers	Units	OrigDataRate	OrigDataStartFrame	OrigNumFrames
120	120	8	19	mm	120	1	343
Frame#	Time	ThumbCMC			ThumbMCP			ThumbIP			ThumbTip			IndexMCP			IndexPIP			IndexTip			MiddleMCP			MiddlePIP			MiddleTip			RingMCP			RingPIP			RingTip			PinkyMCP			PinkyPIP			PinkyTip			BackHand1			BackHand2			BackHand3	
		X0	Y0	Z0	X1	Y1	Z1	X2	Y2	Z2	X3	Y3	Z3	X4	Y4	Z4	X5	Y5	Z5	X6	Y6	Z6	X7	Y7	Z7	X8	Y8	Z8	X9	Y9	Z9	X10	Y10	Z10	X11	Y11	Z11	X12	Y12	Z12	X13	Y13	Z13	X14	Y14	Z14	X15	Y15	Z15	X16	Y16	Z16	X17	Y17	Z17	X18	Y18	Z18	
0	0	-116.069	15.8684	100.976	-100.381	0.368283	81.0432	-80.7283	-13.543	55.1592	-70.5177	-27.902	33.676	-143.367	16.1664	20.0943	-140.36	8.55721	-7.34487	-141.958	-3.72059	-39.1667	-169.351	21.2175	14.362	-176.202	13.0749	-17.5763	-184.932	-2.47522	-46.1656	-193.763	18.3119	22.2348	-202.336	11.9092	-0.0932637	-210.653	-2.07191	-26.0776	-217.318	13.9915	46.0908	-227.819	7.48721	26.1946	-235.884	2.43054	0.660509	-183.786	36.843	74.387	-178.108	49.3347	109.814	-147.024	40.6615	85.0643	
1	0.00833333	-118.032	15.7603	97.6417	-99.8549	1.09875	78.0905	-87.0753	-14.2702	52.844	-73.7923	-29.4382	31.8095	-143.883	18.7066	17.0376	-142.409	10.4588	-13.2724	-144.699	-4.20645	-40.9226	-169.084	22.4345	10.1651	-175.045	14.1314	-16.9473	-185.277	-4.44239	-46.7558	-197.504	20.4562	22.9545	-200.992	10.5142	-2.35005	-209.881	-7.18845	-31.6411	-214.006	14.2231	47.0368	-229.802	5.39037	19.45	-237.5	0.0959521	0.437576	-185.762	38.4316	77.5011	-177.691	50.6099	106.088	-146.693	40.8608	82.6381	
2	0.0166667	-118.643	15.7403	98.7649	-102.65	0.843249	79.5812	-85.5098	-15.9724	48.3437	-78.1212	-29.3058	34.1286	-139.282	18.3621	12.5302	-142.711	11.144	-11.8735	-140.718	-3.05448	-37.9957	-171.226	23.8739	12.5317	-175.645	12.1728	-18.6336	-181.737	-6.55749	-45.5495	-192.294	19.9777	22.6741	-202.022	6.37057	-6.96431	-209.617	-10.9481	-30.1587	-215.86	14.7849	44.1267	-228.368	2.87149	19.9633	-234.057	-7.31953	-0.995781	-186.962	39.9756	76.2517	-177.945	49.2236	105.765	-148.406	42.227	85.2888	
3	0.025	-115.726	16.8148	93.5921	-103.577	1.41021	76.021	-87.821	-14.6187	49.4967	-77.7959	-28.4638	34.6697	-141.743	20.0375	12.8479	-138.59	10.7594	-15.6098	-145.918	-2.40508	-36.4537	-168.252	24.1928	13.2314	-175.398	10.3866	-20.5341	-183.236	-9.57913	-44.8509	-191.851	19.4695	19.3936	-201.463	5.90032	-5.95441	-204.666	-10.426	-26.3856	-210.37	13.6066	43.5206	-221.974	1.88384	17.9453	-231.323	-8.83735	-2.24171	-185.677	39.3869	73.1897	-182.052	50.6322	105.13	-147.315	43.5732	82.1908	
4	0.0333333	-120.026	18.0918	98.0582	-102.485	2.33863	74.3722	-85.4712	-13.4598	50.6587	-76.1551	-27.7032	32.2416	-138.994	21.966	16.0217	-140.059	13.4077	-10.7168	-141.549	-2.00594	-36.3637	-166.449	24.3594	7.45782	-172.447	8.12792	-22.0065	-179.608	-9.66115	-43.3803	-196.178	19.3462	21.2242	-199.731	5.02993	-7.45996	-205.902	-15.5141	-28.3848	-215.82	12.5878	41.8366	-219.087	0.168446	18.9338	-228.935	-12.1463	-2.56543	-186.682	41.8932	73.9195	-177.203	51.0835	103.367	-148.615	43.723	82.9359	
5	0.0416667	-120.499	18.1802	94.1653	-104.059	3.32867	75.2863	-89.5252	-12.8341	46.694	-77.5407	-27.5352	30.6169	-138.998	22.7908	17.3866	-144.316	12.3795	-13.8915	-143.384	-2.00598	-35.7887	-171.001	24.5451	9.3525	-173.189	10.6979	-19.6701	-182.867	-11.0392	-42.9866	-197.128	19.9598	21.3022	-202.838	5.0501	-6.43449	-206.672	-13.8964	-25.5922	-213.805	13.6452	41.3645	-218.947	0.515927	20.5113	-227.863	-15.2818	-0.840144	-183.754	42.2398	77.3939	-180.255	50.7726	106.404	-146.025	44.1715	84.3815	
6	0.05	-118.091	18.8633	94.513	-101.874	2.86004	74.5954	-91.148	-14.1023	51.4812	-81.4008	-27.5317	31.8039	-143.412	23.0552	12.8347	-140.458	13.9917	-10.1527	-145.906	-1.64132	-35.546	-171.837	25.1604	9.06885	-172.569	12.2592	-17.5124	-180.73	-11.3413	-44.8986	-192.071	21.0497	22.6689	-201.045	6.72114	-3.95028	-203.194	-15.6875	-29.2395	-216.125	13.6116	41.6927	-222.322	-2.08077	16.2056	-227.525	-15.8303	-2.46743	-182.893	40.7612	78.1096	-181.633	51.7416	108.46	-149.104	46.832	86.0899	
7	0.0583333	-117.567	20.023	98.8197	-102.284	2.81311	77.514	-87.1177	-13.5263	47.3513	-78.0213	-28.0115	31.2857	-141.858	24.1661	13.5954	-140.258	12.3051	-14.9529	-146.676	-1.22894	-36.1611	-169.754	25.13	8.88276	-173.631	11.4965	-18.3566	-177.424	-14.4941	-46.3404	-191.78	20.8056	20.8663	-203.089	5.73868	-4.14875	-204.843	-14.6994	-25.5798	-215.911	13.4855	38.6645	-220.342	-0.81637	18.9345	-226.663	-18.6162	-4.58738	-187.967	41.8186	78.2545	-181.556	51.6019	106.134	-146.003	47.6154	84.2348	
